<svg xmlns="http://www.w3.org/2000/svg" viewBox="0 0 1200 220" width="1200" height="220"><defs><style>.cls-1{fill:#033550;}.cls-2{fill:#053751;}</style></defs><title>Asset 1</title><g id="Layer_2" data-name="Layer 2"><g id="Layer_1-2" data-name="Layer 1"><path class="cls-1" d="M0,197c2.68-5.91,7.32-10,12.4-13.82C19.72,177.69,27,172.11,34,166.23c3.48-2.92,6.77-3.42,11-2,15.22,5.16,30.83,8.12,47,7.69a139.16,139.16,0,0,0,41-7.69c4.26-1.44,7.5-.7,11,2.14,8.35,6.86,16.93,13.46,25.52,20,5.87,4.48,9.21,10.19,8.21,17.61-1,7.7-5.27,13.12-13.09,15.25-.23.06-.35.49-.52.75H144c-.41-1.32-1.57-.94-2.48-1.07a223.08,223.08,0,0,1-40.58-9.3l10.8-8.82L122.53,192c-3.42-.11-4.72,1-6.17,1.73-20.87,10-42.39,18.05-65.1,22.85-6.39,1.35-13,1.38-19.26,3.43H13A27.13,27.13,0,0,1,0,207Zm122.49-6c-.44.3-.45.61,0,.91C122.94,191.6,122.93,191.3,122.49,191Z"/><path class="cls-1" d="M94,0c8.53,3.34,15.74,8.33,17.34,18,2.19,13.16-1.55,24.84-11.59,33.82-6.81,6.09-16.46,5.58-23.08-1.06-8.93-9-12.37-20.18-10.36-32.5C67.72,9.58,73.57,3.85,82,1c.74-.25,1.71,0,2-1Z"/><path class="cls-2" d="M1200,126l-5.75-1.12V113.16c-3.87,1.85-2.2,8.49-8.08,7.83l-4.91-9.46v13c-2.08,1.34-3.81.73-5.75.58V101.55c1.93-1.19,3.91-.26,5.92-.64l6.19,12.28,6.44-12.19H1200Z"/><path class="cls-1" d="M85,87.06l-9.65,26.88c2.83.43,3-2.18,3.84-3.62Q101,72.8,122.68,35.18c1.29-2.23,2.51-4.41,5.57-4.21,2.79.18,4,2,4.81,5.33L119,61.12c12-.42,13.93,7.7,15.91,16.42,4.27,18.8,9,37.49,13.6,56.23,2.42,9.91-.44,15.92-9.81,20.1q-49.77,22.19-99.58,0c-9.38-4.17-12.35-10.15-9.95-20,5.16-21.16,10.5-42.27,15.54-63.45,1.16-4.87,3.75-7.57,8.54-8.46C58.31,61,63.35,60,68.77,59Z"/><path class="cls-2" d="M938.84,101.15h19.72l-29,85.81H912.75l-13.5-34L887.53,187.1H870.91l-29.1-85.86H862l17.44,56.84L897,101.15h19.26c-1.08,6.31-3.48,12.09-5.66,17.82a16.92,16.92,0,0,0,.25,13.78c3.42,7.89,6.17,16.08,9.68,25.4Z"/><path class="cls-2" d="M366.07,186.69H347.64V101h25.22c5.33,0,10.65-.06,16,0,12.37.18,22.57,7.62,26,18.88s-.91,23-11.25,30c-1.49,1-3,2-4.9,3.22l22.58,33.45h-22l-16.12-24-17,10.41Zm.25-33.83c9-5.57,17.2-10.55,25.29-15.73,3.93-2.52,5.2-6.47,4.2-10.89s-4-7.6-8.57-7.89c-6.89-.44-13.83-.12-20.92-.12Z"/><path class="cls-2" d="M470.44,188.15c-25.06-.06-45.32-19.77-45.37-44.14,0-24.56,20.46-44.44,45.7-44.31,25.42.13,45.39,19.82,45.28,44.64C515.93,168.68,495.61,188.21,470.44,188.15Zm25.77-44.08c.07-15-11.38-27.05-25.59-27.06-14,0-25.54,11.88-25.67,26.51-.14,15,11.18,27.15,25.38,27.35S496.14,159,496.21,144.07Z"/><path class="cls-2" d="M1080.3,101.16h59.15v16.75h-40.09V135h34.47v16.86h-34.58v17.81h40.66v16.91H1080.3Z"/><path class="cls-1" d="M664.83,169.47v17H605.25V101.39h58.8V118H624.14v17h34.43v16.87H624.19v17.63Z"/><path class="cls-2" d="M268.94,100.92c14.4.61,28.41-1.13,42.28.94,15.85,2.36,25,13.09,25.11,28.6S327.42,156.78,312,160c-7.9,1.67-15.9.6-24.49,1.15v25.4H268.94Zm18.75,43.23c5.14,0,9.78,0,14.41,0a28.33,28.33,0,0,0,3.48-.17c6.6-.85,11.18-5.48,11.56-11.65.46-7.43-2.86-12-10.22-13.57-6.33-1.34-12.72-.59-19.24-.54Z"/><path class="cls-2" d="M1000.59,174l10.86-13.14c8,6.31,16.56,10.88,27,10.25a17,17,0,0,0,6.3-1.34c2.56-1.2,4.28-3.05,4.47-6.09a6.79,6.79,0,0,0-3.85-6.95c-4.28-2.33-9-3.36-13.61-4.75-4.13-1.25-8.29-2.43-12.33-3.92-9.87-3.64-15.55-10.38-15.59-21.34,0-11.35,5-19.8,15.31-24,12.3-5,24.46-3.38,36.33,1.74a32.52,32.52,0,0,1,10,6.42l-9.61,14c-5-3-9.62-5.81-15-7.24a26.17,26.17,0,0,0-10.38-.75c-3.86.53-7.12,2-7.77,6.41s2,6.9,5.7,8.21c4.69,1.65,9.53,2.89,14.27,4.42,3.63,1.17,7.28,2.33,10.78,3.82,9.91,4.22,15.08,11.54,14.59,22.61s-5.65,18.54-15.73,22.73C1036.61,191.67,1013.33,186.76,1000.59,174Z"/><path class="cls-2" d="M752,113.11,740.3,126.58c-8.18-6.62-16.86-11.51-27.86-8.75a23.54,23.54,0,0,0-14,9.74c-7.68,11-6.1,27.72,3.41,36.72,10.28,9.73,24.05,8.61,38.76-3.24L752,172.8C744.94,184.63,725,191,707,187c-17.69-3.94-31.46-19.64-33-37.61-1.78-20.74,8-38.34,25.61-46C717.43,95.64,740.16,99.77,752,113.11Z"/><path class="cls-2" d="M787.6,118H761.72V101.23h70.35v16.7H806.39v68.7H787.6Z"/><path class="cls-2" d="M546.94,118.2H521.17V101.35h70.3V118H565.73v68.5h-18.8Z"/><path class="cls-2" d="M988,186.71H969.73V101.24H988Z"/><path class="cls-2" d="M1170.91,101.21v4.16c-2.11,1.22-4.37.08-6.95,1v18c-2,1.42-3.63,1.1-5.74.64V106h-6.53c-1.22-1.71-.79-3.15-.59-4.83Z"/></g></g></svg>